<?xml version="1.0" standalone="no"?><svg xmlns="http://www.w3.org/2000/svg" viewBox="0 0 1440 320"><path fill="#1A3141" fill-opacity="1" d="M0,96L21.8,90.7C43.6,85,87,75,131,85.3C174.5,96,218,128,262,122.7C305.5,117,349,75,393,48C436.4,21,480,11,524,48C567.3,85,611,171,655,186.7C698.2,203,742,149,785,149.3C829.1,149,873,203,916,208C960,213,1004,171,1047,181.3C1090.9,192,1135,256,1178,261.3C1221.8,267,1265,213,1309,160C1352.7,107,1396,53,1418,26.7L1440,0L1440,320L1418.2,320C1396.4,320,1353,320,1309,320C1265.5,320,1222,320,1178,320C1134.5,320,1091,320,1047,320C1003.6,320,960,320,916,320C872.7,320,829,320,785,320C741.8,320,698,320,655,320C610.9,320,567,320,524,320C480,320,436,320,393,320C349.1,320,305,320,262,320C218.2,320,175,320,131,320C87.3,320,44,320,22,320L0,320Z"></path></svg>